<?xml version="1.0" encoding="utf-8" ?>
<svg baseProfile="full" height="300mm" version="1.1" viewBox="0,0,200,300" width="200mm" xmlns="http://www.w3.org/2000/svg" xmlns:ev="http://www.w3.org/2001/xml-events" xmlns:xlink="http://www.w3.org/1999/xlink"><defs /><rect fill="#222222" height="300" width="200" x="0" y="0" /><text fill="#FFFFFF" style="font-size:12px; font-family:Arial; font-weight:bold;" x="10" y="20">Over 2km Runs</text><text fill="#FFFFFF" style="font-size:4px; font-family:Arial" x="10" y="280">ATHLETE</text><text fill="#FFFFFF" style="font-size:9px; font-family:Arial" x="10" y="290">Youngje</text><text fill="#FFFFFF" style="font-size:4px; font-family:Arial" x="120" y="280">STATISTICS</text><text fill="#FFFFFF" style="font-size:3px; font-family:Arial" x="120" y="285">Number: 3</text><text fill="#FFFFFF" style="font-size:3px; font-family:Arial" x="120" y="290">Weekly: 1.5</text><text fill="#FFFFFF" style="font-size:3px; font-family:Arial" x="141" y="285">Total: 7.9 km</text><text fill="#FFFFFF" style="font-size:3px; font-family:Arial" x="141" y="290">Avg: 2.6 km</text><text fill="#FFFFFF" style="font-size:3px; font-family:Arial" x="167" y="285">Min: 2.5 km</text><text fill="#FFFFFF" style="font-size:3px; font-family:Arial" x="167" y="290">Max: 2.8 km</text><polyline fill="none" points="25.50211914163083,34.5 25.680623715743423,39.0557583720074 23.44931654026732,45.0559886075207 22.735298244282603,47.611629492021166 22.55679367017001,48.833889834117144 25.50211914163083,51.83397602447076 26.662398872431368,51.83397602447076 31.839031519833952,51.83397602447076 35.587627574335784,51.500633632182144 36.74790730513632,51.2784052984789 39.42547591589391,51.722861907910556 42.1922968137078,51.94509012636263 44.69136084988713,52.50066042057006 45.85164058068767,52.94511639751727 46.030145154800266,55.278506499307696 43.62033340567723,56.83409637748264 42.549305961467326,57.72300361399539 40.853512508329004,59.38970220152987 40.228746498934925,60.389719800965395 38.175943897571415,63.500878216931596 37.46192560112104,65.83423963055247 37.283421027474105,67.05647403054172 36.83715959265828,69.61204942624317 36.83715959265828,70.94539009110304 36.658655018080026,73.500953911338 36.92641187971458,76.16762109176489 37.3726733145304,77.2787299726624 37.99743932345882,79.61205394170247 39.15771905425936,81.72315111663193 39.96098963776603,82.94536289764801 41.47827851679176,84.83423222851707 43.26332425745204,86.27865891292458 44.06659484049305,87.05642612103838 45.85164058068767,88.2786303103785 47.011920312419534,89.0563957070699 49.15397520037368,90.38970617589075 52.36705753300339,93.27853842271725 52.188552958890796,95.50071046024095 52.0993006718345,96.61179432208883 52.188552958890796,99.05617375759175 52.27780524594709,100.50057651672978 52.188552958890796,101.83386921451893 52.188552958890796,102.50051478715613 52.27780524594709,103.05605236877454 52.188552958890796,104.38934109860566 52.188552958890796,105.6115206151153 52.188552958890796,106.27816325478489 52.188552958890796,106.83369839226361 52.27780524594709,107.3892331707757 52.63481439417228,108.722515171743 54.241355559788644,109.50026204949245 54.866121569182724,109.72247531381436 55.401635291520506,109.9446885206853 56.82967188348994,110.05579510238022 58.079203901812434,110.16690166998887 58.79322219779715,110.16690166998887 59.41798820719123,110.16690166998887 59.95350192906335,110.16690166998887 60.399763363879174,110.278008222871 61.292286234442145,110.16690166998887 62.27406139113009,110.278008222871 62.89882740052417,110.50022128596902 63.70209798356518,110.61132779571926 65.13013457600027,110.94464723940473 65.93340515904129,111.16686013009166 66.7366757420823,111.50017935782671 68.78947834344581,112.16681742545916 71.02078551892191,112.94456118356902 71.91330838901922,113.1667735564406 72.71657897206023,113.50009200786008 74.32312013814226,114.16672852291958 75.21564300870523,114.50004658621037 75.84040901763365,114.72225855657598 78.16096848016605,115.5 78.51797762792557,115.5 80.12451879447326,115.27778823085828 80.57078022975475,115.1666823248961 80.92778937704861,115.1666823248961 81.2847985252738,115.05557640414918 82.08806910878047,114.72225855657598 82.44507825654,114.50004658621037 82.71283511724323,114.16672852291958 82.98059197887778,114.05562247300986 83.6946102748625,113.27787972148508 83.96236713556573,112.83345497539267 84.31937628379092,112.50013626506552 84.49788085790351,112.05571111669997 84.6763854320161,111.61128573818132 84.8548900061287,111.27796655357815 85.12264686729759,110.83354077249533 85.47965601505712,110.16690166998887 85.65816058916971,109.72247531381436 85.9259174503386,109.27804872771958 86.1936743115075,108.94472863723058 86.37217888515443,108.722515171743 86.55068345926702,108.38919486530358 86.81844032043591,108.05587443005061 87.1754494686611,107.16701930260751 87.1754494686611,106.61148438072996 87.35395404230803,106.27816325478489 87.35395404230803,105.83373488625512 87.44320632982999,105.6115206151153 87.35395404230803,104.7226629575016 87.26470175525174,104.27823378343601 87.1754494686611,103.94491175212897 87.1754494686611,103.6115895913099 87.35395404230803,103.38937474525301 86.9969448945485,101.72276156884618 86.72918803337961,100.16725301888073 86.63993574632332,99.722821486881 86.37217888515443,99.3894976870506 86.1936743115075,99.05617375759175 86.0151697373949,98.27841741940938 86.0151697373949,97.83398490969557 86.0151697373949,97.3895521700615 86.1044220244512,97.05622746440349 86.1936743115075,96.61179432208883 86.28292659809813,95.05627651273971 86.37217888515443,94.38962516031461 85.8366651632823,93.61186459497549 85.56890830211341,93.3896471610642 85.21189915435389,93.05632090271683 84.40862857131287,92.27855912962696 83.87311484897509,92.16745024715783 82.98059197887778,91.8341235142434 82.5343305435963,91.9452324397862 82.17732139583677,92.05634135066066 81.64180767349899,92.16745024715783 81.2847985252738,92.27855912962696 80.66003251634538,92.27855912962696 79.76750964624807,92.05634135066066 78.96423906320706,91.8341235142434 78.42872534086928,91.8341235142434 77.98246390605345,91.72301457461435 77.53620247123763,91.72301457461435 77.17919332254678,91.72301457461435 76.82218417478725,91.72301457461435 76.46517502656206,91.61190562043339 75.57265215646476,91.61190562043339 75.12639072118327,91.61190562043339 74.68012928636745,91.72301457461435 74.14461556449533,91.72301457461435 73.60910184215754,91.72301457461435 72.5380743984133,91.72301457461435 72.09181296313182,91.5007966516423 71.64555152785033,91.5007966516423 71.28854237962514,91.5007966516423 70.93153323186561,91.5007966516423 70.48527179704979,91.38968766893959 70.1282626488246,91.5007966516423 68.52172148227692,91.38968766893959 65.84415287245065,91.61190562043339 64.86237771483138,91.38968766893959 62.184809104539454,90.83414253877709 61.292286234442145,90.72303346946137 59.86424964200705,89.27861426217714 59.68574506836012,88.38973969599465 59.68574506836012,87.50086420943262 59.32873592013493,85.83422019187128 59.15023134602234,84.83423222851707 58.971726772375405,84.16757293912815 56.56191502278671,79.056501190993 56.38341044867411,75.83428814727813 55.758644439745694,74.50095507432707 56.20490587456152,72.94539720611647 56.20490587456152,71.0565017198096 56.026401300448924,70.61205511906883 55.84789672633633,69.50093761045719 55.758644439745694,69.05649020470446 55.758644439745694,68.61204256862402 55.58013986516744,68.16759470262332 55.6693921526894,67.83425865188474 55.6693921526894,67.50092247192515 55.6693921526894,66.72313754848437 55.84789672633633,66.16757645760663 56.026401300448924,65.72312732593855 56.11565358750522,64.83422837272519 56.38341044867411,64.50089102808852 56.47266273573041,64.05644103360828 56.56191502278671,63.389765610627364 56.651167309843004,63.05642770510167 56.38341044867411,62.7230896698311 55.22313071740791,62.50086424156325 54.77686928212643,62.38975150557235 54.241355559788644,62.27863875543699 53.61658955132589,62.05641321151052 53.081075828988105,61.94530041818507 52.63481439417228,61.83418761054054 51.653039237018675,61.61196195194498 51.11752551468089,61.61196195194498 50.31425493163988,61.389736235607415 50.492759505752474,61.1675104618771 50.492759505752474,61.05639755359152 50.492759505752474,61.05639755359152 50.22500264458358,60.72305874194717 50.40350721869618,60.0563807306462 50.31425493163988,58.723023155063856 50.40350721869618,58.27857016923372 50.22500264458358,57.945230279292446 49.867993496358395,56.83409637748264 48.79696605261415,55.50073379743844 48.52920919144526,54.94516544445651 48.26145233027637,54.50071050331462 48.17220004322007,54.16736914642388 47.63668632088229,53.61179993080441 47.011920312419534,53.16734429926146 46.387154303025454,52.94511639751727 45.94089286774397,52.834002424788196 45.40537914587185,52.72288843768183 44.959117711056024,52.389546390331816 44.602108562365174,52.167318287305534 43.88809026638046,52.05620421387721 42.99556739628315,51.83397602447076 42.01379223912954,51.2784052984789 42.01379223912954,50.50060567853507 42.01379223912954,50.167262768605724 42.10304452618584,49.72280535387108 42.1922968137078,49.389462141902186 42.10304452618584,49.05611880036304 41.924539952073246,48.500546277326066 41.389026230201125,48.38943172933068 40.853512508329004,48.16720259055728 40.13949421234429,48.05608799948823 39.603980490006506,47.944973394216504 39.15771905425936,47.722744140715804 38.35444847168401,47.389400151907466 38.08669161098078,47.278285460022744 37.10491645336151,46.94494129909435 36.658655018080026,46.94494129909435 36.3016458703205,46.94494129909435 35.49837528727949,46.72271178633673 34.78435699129477,46.500482216186356 34.695104704238474,46.500482216186356 34.695104704238474,46.389367409516126 34.695104704238474,46.27825258864323 34.60585241718218,45.38933350238949 34.51660013012588,44.72264358366374 34.42734784306958,44.27818335022312 34.695104704238474,43.389262193406466 34.695104704238474,42.61145542602753 34.962861564941704,42.16699409956345 34.87360927835107,42.05587873188779 34.695104704238474,41.83364795392845 34.51660013012588,41.7225325430627 34.338095556013286,41.50030167849036 33.62407725956291,41.278070756350644 33.35632039885968,41.16695527394768 32.19604066759348,40.50026207632618 31.482022371608764,40.16691528336378 30.67875178856775,39.61133700760547" stroke="red" stroke-linecap="round" stroke-linejoin="round" stroke-width="0.5"><title>2020-10-15 2.7km</title></polyline><polyline fill="none" points="115.6026431065984,35.29193577350816 115.14827901218086,37.66773878899403 114.60304209915921,40.04353534738766 114.33042364288121,41.174864771950524 113.42169545404613,43.6637843522476 113.05820417869836,45.0213738635066 112.05860317172483,47.397150434786454 114.23955082381144,51.1305005720933 117.87446357728913,51.0173689838266 119.05581022240222,51.1305005720933 121.50937633076683,51.1305005720933 122.69072297587991,51.243632145400625 124.78079780843109,51.243632145400625 125.87127163494006,51.0173689838266 127.9613464679569,51.0173689838266 128.9609474753961,51.1305005720933 129.86967566376552,51.243632145400625 132.95935150422156,51.469895248359535 134.7768078809604,51.6961582924705 134.5041894246824,55.8820140491589 131.23276794608682,59.0496753519983 130.14229412050918,60.52037134062266 129.59705720748752,61.42541379586328 129.41531156981364,61.991064854955766 129.2335659316741,62.66984564217273 128.7792018377222,63.80114578298526 128.59745620004833,64.47992516501108 126.87087264237925,68.5525903874659 126.68912700470537,71.38081896165386 126.68912700470537,72.85149420419475 126.96174546098337,75.34032359311823 127.23436391772702,76.35847902810201 127.6887280116789,78.39478634070838 128.05221928702667,79.2998102902202 128.9609474753961,81.90174892591313 129.59705720748752,82.9198967187549 131.5962592214346,85.40869744244264 134.04982533073053,87.3318567846436 135.59466325072572,88.23687148204772 136.50339143862948,88.68937847943744 137.4121196269989,89.14188524248311 139.32044882280752,90.2731511250604 142.68274311954156,93.10130942735123 142.5918703014031,95.137577739486 142.50099748233333,97.62634368008003 142.5918703014031,98.87072399328463 142.41012466326356,102.37760443711886 142.3192518441938,103.62197798705893 142.22837902558967,105.77134631079389 142.3192518441938,106.90259067463921 142.50099748233333,107.35508800996467 142.68274311954156,107.58133658993756 142.9553615762852,107.92070935032098 143.046234395355,108.3732061588089 143.31885285163298,109.27819907321827 144.04583540232852,109.73069517931435 144.5001994962804,109.84381916897837 145.4089276851155,110.18319105077535 145.77241896046326,110.18319105077535 146.04503741674125,110.40943889890332 146.40852869208902,110.52256280113943 146.86289278650656,110.52256280113943 147.771620974876,110.74881056131562 148.1351122497581,110.63568668835796 148.6803491632454,110.63568668835796 149.22558607626706,110.74881056131562 149.86169580789283,110.86193441943033 150.31605990231037,110.86193441943033 151.3156609092839,110.97505826270208 151.86089782230556,110.97505826270208 152.22438909765333,110.97505826270208 152.67875319207087,110.97505826270208 153.13311728602275,110.97505826270208 153.58748137997463,110.97505826270208 155.31406493810937,111.20130590588087 156.04104748927057,111.54067726101493 156.85890285857022,111.65380101650953 159.67596024274826,112.44566689641215 160.13032433670014,112.55879053508397 161.0390525246039,112.78503776842263 161.85690789436921,113.01128494320437 162.67476326413453,113.3506555953063 163.4017458143644,113.69002611591714 164.85571091622114,114.25564335711533 165.76443910459056,114.48189015127718 166.67316729296,114.70813688676571 168.21800521342084,115.27375346969347 169.76284313341603,115.5 171.58029951015487,115.38687674223911 173.85211998131126,114.14251993823564 174.30648407526314,113.57690262357937 174.76084816968068,112.89816136291483 175.6695763580501,111.31442970555509 176.123940452002,110.40943889890332 176.76005018409342,108.59945447515929 177.12354145944118,107.80758511129534 177.66877837199718,105.99759530066513 177.75965119106695,105.31884815549711 177.94139682874084,104.30072644975735 177.85052400967106,102.6038543052855 177.57790555339307,102.26447948091663 177.39615991571918,101.69885448133573 177.3052870966494,101.2463542179321 177.0326686403714,100.79385372065008 176.94179582130164,100.34135298896581 176.94179582130164,100.00197728618514 176.85092300223187,99.54947614483535 176.76005018409342,99.21010013483465 176.76005018409342,98.41822226607474 176.85092300223187,97.96572030463722 176.85092300223187,97.51321810903028 177.0326686403714,97.06071567942854 177.12354145944118,96.83446437661769 177.0326686403714,96.4950873128837 176.94179582130164,96.04258435562951 177.12354145944118,95.36382948147366 177.0326686403714,94.45882216241444 176.30568609014153,93.2144355692435 175.6695763580501,92.5356784988544 174.8517209882848,92.30942602502182 174.48822971247137,92.19629976589931 174.03386561851948,92.19629976589931 172.8525189734064,92.30942602502182 172.03466360410675,92.30942602502182 171.67117232922465,92.19629976589931 171.30768105387688,92.19629976589931 170.12633440829813,92.08317349251593 169.67197031434625,92.08317349251593 169.0358605827205,92.19629976589931 167.94538675667718,92.19629976589931 167.0366585678421,91.97004720446421 166.67316729296,91.85692090145312 166.12793037993833,91.97004720446421 165.58269346691668,91.97004720446421 163.85610990878195,91.85692090145312 162.67476326413453,91.85692090145312 160.6755612497218,91.74379458418116 159.67596024274826,91.85692090145312 158.67635923530906,91.85692090145312 154.9505736627616,91.40441554383142 153.49660856183618,91.17816277744714 151.7700250032358,90.95190995186567 151.22478809021413,90.83878351742169 150.77042399626225,90.83878351742169 150.31605990231037,90.2731511250604 150.31605990231037,89.93377151380992 150.31605990231037,89.48126516089542 150.2251870832406,88.91563189012231 150.1343142646365,88.34999825345585 150.0434414455667,86.99247603188269 149.95256862649694,86.42684115073644 149.95256862649694,85.86120590375504 150.0434414455667,84.61680707178311 150.2251870832406,84.05117065325612 150.31605990231037,82.9198967187549 150.49780553998426,81.22298307181336 150.58867835905403,80.65734445780981 150.67955117765814,80.20483330258867 150.67955117765814,79.4129382178653 150.58867835905403,77.94227401429089 150.49780553998426,77.26350508566247 150.31605990231037,76.47160733636701 150.31605990231037,76.01909401494777 149.95256862649694,75.34032359311823 149.49820453254506,74.54842410172569 149.1347132571973,74.09590978443157 148.8620948009193,73.75652389286552 148.6803491632454,73.41713786922628 148.31685788789764,73.07775171444518 148.04423943161964,72.73836542729987 147.58987533673644,72.1727213228005 147.40812969952822,71.94646357843885 147.22638406185433,71.6070768526406 146.68114714883268,70.36265772936167 146.40852869208902,69.5707537283306 146.13591023581102,69.0051075743977 146.04503741674125,68.6657197062741 145.86329177906737,68.10007296671392 145.68154614185914,67.64755531097762 145.59067332278937,66.85564885061467 145.68154614185914,65.49809324950911 145.68154614185914,64.93244446016615 145.68154614185914,64.47992516501108 145.59067332278937,64.02740563591942 145.4998005037196,63.122365874412935 145.1363092288375,62.66984564217273 144.86369077209383,62.1041950226645 143.8640897651203,61.086022985051386 143.31885285163298,60.97289268526947 142.8644887576811,61.086022985051386 142.41012466326356,60.97289268526947 142.04663338838145,60.859762371110264 141.68314211256802,60.859762371110264 141.22877801861614,60.859762371110264 140.6835411055945,60.52037134062266 140.6835411055945,60.29411058028927 140.5017954679206,59.38906695350306 140.41092264885083,58.7102836187114 140.5017954679206,57.91836906137178 140.13830419257283,56.10827595141018 139.59306727908552,54.97696585429367 137.59386526513845,52.60120988433482 136.68513707676902,52.14868420577841 135.23117197537795,51.58302677801112 134.5041894246824,51.35676370403962 133.59546123631299,51.1305005720933 131.95975049724802,48.30220647761598 131.86887767817825,47.51028249121737 131.68713204050437,46.83148993214127 130.77840385213494,46.60522562859114 130.14229412050918,46.492093454580754 128.50658338144422,46.60522562859114 128.05221928702667,46.492093454580754 127.59785519307479,46.378961266367696 126.77999982330948,46.60522562859114 126.41650854796171,46.718357787583955 125.50778035959229,46.718357787583955 124.96254344657063,46.718357787583955 124.50817935261875,46.718357787583955 122.9633414321579,46.378961266367696 122.05461324378848,46.378961266367696 121.60024914937094,46.26582906348631 121.23675787402317,46.15269684570376 120.23715686704963,45.9264323663665 119.32842867868021,46.03956461319467 118.96493740333244,46.03956461319467 118.69231894658878,45.9264323663665 118.14708203356713,45.81330010498641 117.78359075821936,45.70016782853054 117.51097230194137,45.70016782853054 116.60224411357194,45.81330010498641 115.69351592520252,45.81330010498641 114.87566055590287,45.81330010498641 113.96693236706778,45.81330010498641 113.42169545404613,45.4739032323705 113.33082263590768,45.24763857712969 113.05820417869836,44.79510909161763 113.05820417869836,44.11631442361977 113.05820417869836,43.550651797966566 113.05820417869836,43.09812143369345 113.2399498168379,42.19306000228971 113.60344109218568,41.51426331407856 113.69431391078979,40.94859900441952 113.87605954846367,39.59100316738477 114.05780518613756,39.25160387874348 114.14867800520733,38.68593810487073 114.33042364288121,38.007138692890294 114.60304209915921,37.55460545863025 114.96653337450698,36.31013785698451 115.51177028752863,35.29193577350816 115.8752615628764,34.61313372571021 115.78438874380663,34.5" stroke="red" stroke-linecap="round" stroke-linejoin="round" stroke-width="0.5"><title>2020-10-03 2.8km</title></polyline><polyline fill="none" points="24.302921157795936,199.8094553638366 25.03708148933947,199.8094553638366 26.4136321102269,200.03795268666 31.002134178765118,200.15220132598188 32.28691475791857,200.26644995057723 35.40709616523236,200.4949471548316 39.81205815123394,201.06618990754941 43.115779641550034,201.40893538150704 45.86888088239357,202.20867430331418 45.134720551781356,204.3793905818602 41.00506868911907,207.9210741033894 40.27090835850686,208.83505464089103 38.89435773761943,210.89150739094475 38.160197406075895,212.03397907078033 36.41656662011519,217.6320689296117 36.60010670311749,219.1172704846249 36.141256496310234,222.77314059028868 35.957716413307935,225.62927857547766 36.23302653757855,227.00022152613383 37.150726951658726,229.05663196078967 37.517807116732,229.51361140649533 37.88488728227094,230.1990801320644 38.435507530812174,231.68426054465817 38.71081765508279,232.2554831149173 39.6285180686973,233.85490434541134 41.18860877212137,235.45432267832803 42.10630918620154,236.25403075804934 45.226490593049675,238.8816379197524 47.520741627551615,240.36680372525007 48.621982124168426,240.70953394088428 50.824463116936386,241.50923726026667 54.0364145655185,242.5374261777033 56.42243564128876,242.6516693169251 57.34013605536893,242.6516693169251 57.890756303444505,242.6516693169251 58.991996800061315,242.5374261777033 59.63438708987087,242.5374261777033 60.276777379680425,242.4231830238714 61.65332800056785,242.6516693169251 62.387488331180066,243.56561389775015 62.387488331180066,244.25107171252603 62.29571828991175,244.93652899516746 62.29571828991175,245.50774299068144 62.11217820737511,247.67835280299187 62.11217820737511,249.1635038102977 62.02040816564113,252.1337983296835 61.74509804183617,256.36073868512176 61.74509804183617,257.6173927258933 61.74509804183617,260.3591771518113 63.39695878652856,261.2731034012977 63.94757903506979,261.3873441161122 64.58996932441369,261.5015848162584 65.23235961422324,261.5015848162584 66.51714019337669,261.9585474678315 67.15953048318624,261.9585474678315 67.8019207729958,262.18702870508423 68.71962118707597,262.41550988325616 71.10564226284623,263.215193540731 72.29865280073136,263.5579148865654 74.04228358669207,264.35759750945726 75.87768441438675,264.70031841192394 78.44724557315931,265.38575981761096 79.36494598677382,265.5 81.29211685573682,265.27151962014614 83.03574764216319,264.58607812586706 84.50406830431893,262.87247206206666 85.32999867666513,261.1588626719895 85.51353875966743,260.70189960615244 86.15592904901132,259.9022136720014 86.33946913201362,259.5594909071806 86.52300921501592,259.2167680092971 86.70654929755256,258.7598039379227 86.98185942182317,258.41708072985057 87.16539950482547,257.7316339138779 86.89008938055485,256.9319452892523 86.61477925581858,256.47498003556393 86.43123917328194,254.6471166560077 86.43123917328194,252.81924949173117 86.52300921501592,251.79107254912378 86.43123917328194,251.21986261883285 86.52300921501592,250.30592596210772 86.61477925581858,249.84895727876574 86.70654929755256,249.27774609212065 86.89008938055485,248.82077687664423 86.89008938055485,248.47804980981164 86.89008938055485,248.1353226097999 86.79831933928654,247.44986781087937 86.79831933928654,246.87865507195238 86.70654929755256,246.53592725115595 86.70654929755256,245.73622848535888 86.98185942182317,244.93652899516746 85.78884888347238,244.1368287805235 83.12751768389717,242.994398645591 81.29211685573682,242.76591244118754 80.28264640085399,242.76591244118754 77.43777511827648,242.5374261777033 76.1529945381917,242.5374261777033 75.78591437311843,242.30893985496368 75.4188342075795,242.19469667167868 75.14352408330888,242.19469667167868 74.86821395903826,242.0804534732015 74.409363752231,242.0804534732015 73.95051354542375,241.9662102602888 72.84927304880694,241.9662102602888 72.39042284199968,241.85196703253314 71.38095238665119,241.7377237897599 70.92210217984393,241.7377237897599 70.46325197303668,241.62348053249298 69.82086168322712,241.7377237897599 69.27024143515155,241.7377237897599 68.90316126961261,241.7377237897599 68.53608110407367,241.62348053249298 67.6183806899935,241.62348053249298 67.15953048318624,241.7377237897599 65.59943977976218,241.50923726026667 65.04881953122094,241.62348053249298 64.40642924141139,241.7377237897599 63.85580899333581,241.85196703253314 63.39695878652856,242.0804534732015 62.29571828991175,242.30893985496368 61.92863812437281,242.19469667167868 61.469787917565554,242.19469667167868 61.01093771029264,242.0804534732015 60.55208750395104,242.19469667167868 60.185007338412106,242.19469667167868 59.175536883063614,241.50923726026667 59.26730692433193,240.9380206775968 59.175536883063614,240.0240733762621 59.26730692433193,239.11012512916932 59.35907696560025,238.31041963666212 59.35907696560025,237.28222579613794 59.45084700686857,236.8252503714757 59.45084700686857,236.36827471019933 59.45084700686857,235.91129881277448 59.35907696560025,235.56856673402945 59.35907696560025,234.99734630744206 59.175536883063614,233.85490434541134 59.083766841329634,233.5121714688139 59.175536883063614,232.94094971154118 59.175536883063614,232.14123863045825 59.35907696560025,231.68426054465817 59.26730692433193,231.22728222230216 59.35907696560025,230.88454832532443 59.35907696560025,230.42756958917016 59.175536883063614,229.51361140649533 59.083766841329634,228.82814214902464 59.35907696560025,227.9141823107493 59.35907696560025,227.00022152613383 59.083766841329634,226.65748598851496 58.900226758792996,226.08625979570206 58.34960651071742,225.40078787662787 58.16606642771512,224.8295608710032 57.70721622090787,224.48682449030457 57.52367613837123,224.25833349581808 57.24836601410061,223.9155968928826 56.881285848561674,223.57286015735008 56.33066560002044,222.43040341086453 55.13765506260097,219.57425507559674 54.95411497913301,218.43179315456655 55.04588502086699,217.86056163918693 55.13765506260097,216.60385100462008 54.95411497913301,216.03261830681004 54.86234493833035,215.4613852390903 54.86234493833035,214.89015180169372 54.67880485532805,214.43316478596535 54.495264772325754,213.17644927219953 54.12818460678682,212.1482261575875 53.76110444171354,211.69123772217426 52.29278377909213,210.7772601415636 51.83393357228488,210.89150739094475 51.37508336547762,210.7772601415636 50.64092303439975,211.00575462536654 50.09030278632417,210.4345183049445 49.99853274459019,209.63478683505673 49.906762703787535,209.06354962766636 49.814992662053555,208.72080712550087 49.723222620785236,208.26381691615097 49.723222620785236,207.69257882144302 49.63145257951692,207.34983578685205 49.723222620785236,206.32160588551778 49.53968253778294,205.29337478650268 49.172602372244,204.72213476960314 48.805522207170725,204.15089438273571 48.621982124168426,203.92239812476328 48.07136187609285,203.12266075517982 47.520741627551615,202.89416423084913 46.87835133774206,202.43717100512004 46.419501130934805,202.09442593011772 45.226490593049675,201.75168072257657 43.57462984835729,201.06618990754941 42.840469516813755,200.72344430023804 42.014539144933224,200.3806985600968 41.46391889639199,199.6952066803933 41.46391889639199,199.4667092691525 41.37214885512367,199.1239630408818 41.28037881385535,198.666967863217 41.28037881385535,198.43847018521046 41.09683873085305,197.98147465271177 41.00506868911907,197.52447888301685 40.546218482311815,196.8389847856015 39.53674802696332,196.49623753729975 39.07789782015607,196.38198842509883 38.06842736527324,196.38198842509883 37.517807116732,196.2677392976475 37.058956909924746,196.2677392976475 36.50833666184917,196.15349015558604 35.957716413307935,196.03924099897267 35.49886620650068,196.15349015558604 35.040016000159085,196.03924099897267 34.58116579242051,195.9249918271671 34.03054554434493,195.9249918271671 33.0210750894621,195.9249918271671 32.653994923923165,195.9249918271671 32.28691475791857,195.9249918271671 31.736294509842992,196.03924099897267 31.185674261301756,196.03924099897267 30.7268240544945,196.15349015558604 30.359743889421225,196.15349015558604 29.533813517075032,196.2677392976475 28.983193268533796,196.15349015558604 28.61611310299486,196.2677392976475 28.065492854453623,196.15349015558604 27.606642647646368,196.15349015558604 27.23956248210743,196.15349015558604 26.0465519442223,195.9249918271671 25.404161654412746,195.81074264110066 24.761771365068853,195.81074264110066 23.935840992257,195.81074264110066 22.83460049564019,194.21125248022145 23.018140578642488,193.1830072744633 23.201680661644787,192.15476087137358 23.75230090972036,190.55526408588048 24.211151116527617,189.64126462163404 24.394691199064255,188.84151431400096 24.486461240798235,188.0417632816243 24.02761103399098,187.4705121004372 24.119381075259298,187.01351088943193 24.486461240798235,185.87100682710297 24.670001323334873,185.29975424142322 24.853541406337172,184.95700251252856 25.03708148933947,184.5" stroke="red" stroke-linecap="round" stroke-linejoin="round" stroke-width="0.5"><title>2020-09-28 2.5km</title></polyline></svg>