<?xml version="1.0" encoding="utf-8" ?>
<svg baseProfile="full" height="300mm" version="1.1" viewBox="0,0,200,300" width="200mm" xmlns="http://www.w3.org/2000/svg" xmlns:ev="http://www.w3.org/2001/xml-events" xmlns:xlink="http://www.w3.org/1999/xlink"><defs /><rect fill="#222222" height="300" width="200" x="0" y="0" /><text fill="#FFFFFF" style="font-size:12px; font-family:Arial; font-weight:bold;" x="10" y="20">Over 2km Runs</text><text fill="#FFFFFF" style="font-size:4px; font-family:Arial" x="10" y="280">ATHLETE</text><text fill="#FFFFFF" style="font-size:9px; font-family:Arial" x="10" y="290">Youngje</text><text fill="#FFFFFF" style="font-size:4px; font-family:Arial" x="120" y="280">STATISTICS</text><text fill="#FFFFFF" style="font-size:3px; font-family:Arial" x="120" y="285">Number: 7</text><text fill="#FFFFFF" style="font-size:3px; font-family:Arial" x="120" y="290">Weekly: 2.3</text><text fill="#FFFFFF" style="font-size:3px; font-family:Arial" x="141" y="285">Total: 17.2 km</text><text fill="#FFFFFF" style="font-size:3px; font-family:Arial" x="141" y="290">Avg: 2.5 km</text><text fill="#FFFFFF" style="font-size:3px; font-family:Arial" x="167" y="285">Min: 1.7 km</text><text fill="#FFFFFF" style="font-size:3px; font-family:Arial" x="167" y="290">Max: 2.8 km</text><polyline fill="none" points="17.427807486150414,51.4182311022887 18.582887700293213,59.46019679954043 15.983957219403237,61.02057008864358 15.598930480889976,68.82239697466139 18.486631015315652,72.42321791534778 20.21925133652985,81.42520882422104 24.839572192169726,81.18515687208856 27.245989304501563,84.54587851738324 57.56684491923079,78.90466021728935 63.43850267352536,74.70373058028053 64.01604277966544,60.180369414621964 67.0,57.29967558418866 60.358288769610226,48.29744942637626 56.31550802104175,35.454121482616756 42.454545454122126,36.17431282490725 43.224598929751664,49.0176307495567 41.78074866253883,50.57802168891067 37.73796791397035,49.37772120046429 35.139037432614714,52.978617983986624 26.090909090358764,49.617781423265114 21.56684491923079,46.136902086262126 14.732620320282876,45.53674915008014 13.0,43.73628800007282" stroke="#4dd2ff" stroke-linecap="round" stroke-linejoin="round" stroke-width="0.5"><title>2021-08-13 1.7km</title></polyline><polyline fill="none" points="140.36449685692787,33.0 140.48349990625866,36.037172248004936 138.40094654262066,42.555926556058694 140.36449685692787,44.55598401627503 147.86168896616437,44.185603532299865 153.93084448296577,45.29674426501151 154.04984753229655,46.85233766620513 148.81371336081065,52.33391881122952 147.98069201549515,60.77841406111838 151.01526977377944,66.55615481897257 158.27445578435436,72.1856922818115 158.45296035869978,82.4816767811426 166.78317381301895,83.96309815958375 175.47039641602896,87.0 177.55294977943413,86.70371760276612 179.57600161852315,85.00009084335761 181.59905345737934,80.85210883652326 180.9445366859436,72.92641677352367 178.68347874842584,71.2227490094374 167.25918601057492,71.07460374693619 163.2725838571787,69.51907617476536 160.53551372210495,59.66730338288471 161.1305289689917,52.037618470028974 156.9059207169339,50.92649082373828 156.96542224148288,48.852380112803075 155.12087497650646,45.7411999538308 151.37227892200463,44.185603532299865 151.31277739722282,42.33369751815917 146.4931538987439,41.000321477418765 146.61215694784187,38.03725248790579 143.81558528821915,36.407558005070314" stroke="red" stroke-linecap="round" stroke-linejoin="round" stroke-width="0.5"><title>2020-10-15 2.5km</title></polyline><polyline fill="none" points="20.334746094420552,93.0 20.453749143751338,96.03717224800494 18.9662110270001,100.03732573834714 18.490198829444125,101.74108632799471 18.37119578011334,102.5559265560587 20.334746094420552,104.55598401627503 21.108265915187076,104.55598401627503 24.559354346478358,104.55598401627503 27.058418382890522,104.33375575474929 27.831938203657046,104.18560353229987 29.616983943851665,104.48190793854883 31.461531209060922,104.63006008422235 33.127573899924755,105.00044028036064 33.90109372045845,105.29674426501151 34.020096769789234,106.85233766620513 32.41355560370721,107.88939758500783 31.699537307722494,108.48200240934966 30.569008338730782,109.59313480101991 30.152497665956616,110.2598132006242 28.783962598303333,112.33391881122952 28.30795040098019,113.88949308701558 28.188947351649404,114.70431602036115 27.891439728438854,116.40803295082878 27.891439728438854,117.29692672734382 27.772436678642407,119.0006359408726 27.950941252987832,120.77841406111838 28.24844887619838,121.51915331510827 28.664959548972547,123.07470262778224 29.43847936950624,124.48210074438248 29.97399309161119,125.29690859845141 30.985519011272117,126.55615481897257 32.17554950504564,127.51910594193032 32.71106322691776,128.0376174140256 33.90109372045845,128.8524202069384 34.6746135414578,129.37093047139933 36.10265013342723,130.2598041172023 38.24470502184704,132.1856922818115 38.125701972516254,133.6671403068467 38.066200447967276,134.40786288137315 38.125701972516254,136.03744917170843 38.18520349729806,137.00038434448652 38.125701972516254,137.88924614299322 38.125701972516254,138.33367652475135 38.18520349729806,138.70403491245816 38.125701972516254,139.5928940657177 38.125701972516254,140.40768041007686 38.125701972516254,140.85210883652326 38.125701972516254,141.222465594823 38.18520349729806,141.59282211383106 38.423209596192464,142.4816767811426 39.494237039936706,143.00017469964223 39.9107477129437,143.14831687585684 40.26775686093606,143.2964590137708 41.21978125558235,143.37053006823407 42.05280260113068,143.4446011132677 42.52881479868665,143.4446011132677 42.94532547122799,143.4446011132677 43.302334619220346,143.4446011132677 43.599842242663726,143.51867214852246 44.194857489550486,143.4446011132677 44.84937426075339,143.51867214852246 45.26588493352756,143.6668141906266 45.80139865563251,143.74088519712677 46.75342305051163,143.96309815958375 47.28893677261658,144.11124008672778 47.82445049472153,144.333452905179 49.192985562374815,144.77787828363944 50.680523679358885,145.29637412237935 51.275538926012814,145.44451570429374 51.811052647884935,145.66672800522065 52.88208009209484,146.11115234857425 53.4770953389816,146.3333643907681 53.893606011755764,146.48150570434518 55.44064565352164,147.0 55.678651752183214,147.0 56.74967919616029,146.85185882053338 57.04718681960367,146.7777882165974 57.28519291803241,146.7777882165974 57.52319901692681,146.70371760276612 58.05871273903176,146.48150570434518 58.296718837693334,146.3333643907681 58.4752234115731,146.11115234857425 58.65372798591852,146.03708164865384 59.129740183241665,145.51858648099005 59.30824475712143,145.22230331692845 59.54625085601583,145.0000908433576 59.66525390534662,144.7038074111333 59.7842569546774,144.40752382547362 59.90326000400819,144.18531103566056 60.08176457812078,143.88902718166355 60.319770676782355,143.4446011132677 60.43877372611314,143.14831687585684 60.617278300225735,142.85203248512698 60.79578287433833,142.62981909146765 60.914785923436284,142.4816767811426 61.0337889729999,142.2594632434775 61.212293547112495,142.03724962001434 61.45029964577407,141.44467953505227 61.45029964577407,141.07432292046724 61.56930269487202,140.85210883652326 61.56930269487202,140.555823257484 61.62880421965383,140.40768041007686 61.56930269487202,139.815108638315 61.509801170323044,139.51882252225187 61.45029964577407,139.29660783469444 61.45029964577407,139.07439306087326 61.56930269487202,138.92624983016867 61.33129659621045,137.81517437921138 61.152792022097856,136.778168679215 61.09329049754888,136.481880991254 60.914785923436284,136.2596651247004 60.79578287433833,136.03744917170843 60.67677982477471,135.51894494623411 60.67677982477471,135.22265660646372 60.67677982477471,134.92636811337434 60.73628134955652,134.70415164291626 60.79578287433833,134.40786288137315 60.855284398654476,133.37085100845434 60.914785923436284,132.92641677352367 60.55777677544393,132.40790972998366 60.37927220133133,132.2597647740622 60.14126610290259,132.03754726843908 59.60575238079764,131.5190394197125 59.24874323257245,131.44496683141915 58.65372798591852,131.2227490094374 58.35622036247514,131.29682162648533 58.1182142640464,131.37089423375437 57.76120511558838,131.44496683141915 57.52319901692681,131.5190394197125 57.106688344152644,131.5190394197125 56.511673097498715,131.37089423375437 55.97615937539376,131.2227490094374 55.619150227168575,131.2227490094374 55.321642603958026,131.14867638301803 55.024134980747476,131.14867638301803 54.786128881853074,131.14867638301803 54.5481227831915,131.14867638301803 54.31011668452993,131.0746037469362 53.71510143741034,131.0746037469362 53.41759381419979,131.0746037469362 53.12008619098924,131.14867638301803 52.76307704276405,131.14867638301803 52.406067894771695,131.14867638301803 51.69204959878698,131.14867638301803 51.3945419753436,131.00053110107547 51.09703435190022,131.00053110107547 50.85902825300582,131.00053110107547 50.621022154577076,131.00053110107547 50.323514531133696,130.92645844595972 50.085508432472125,131.00053110107547 49.01448098826222,130.92645844595972 47.2294352480676,131.0746037469362 46.574918476631865,130.92645844595972 44.789872736204416,130.5560950258514 44.194857489550486,130.48202231299365 43.24283309467137,129.51907617476536 43.12383004534058,128.9264931306825 43.12383004534058,128.33390947291628 42.88582394667901,127.22281346126692 42.766820897348225,126.55615481897257 42.64781784801744,126.1117152927327 41.041276681935415,122.70433412730927 40.9222736323718,120.55619209818542 40.50576295959763,119.66730338288471 40.80327058304101,118.63026480405824 40.80327058304101,117.37100114650093 40.684267533477396,117.07470341271255 40.56526448437944,116.33395840693265 40.50576295959763,116.03766013646964 40.50576295959763,115.74136171239661 40.386759910266846,115.44506313506281 40.446261435048655,115.22283910121769 40.446261435048655,115.00061498128343 40.446261435048655,114.48209169897018 40.56526448437944,114.11171763838502 40.684267533477396,113.81541821727296 40.743769058259204,113.22281891515013 40.9222736323718,113.00059401872568 40.981775156920776,112.70429402240552 41.041276681935415,112.25984374037944 41.10077820648439,112.03761847002897 40.9222736323718,111.81539311318193 40.148753811605275,111.66724282770883 39.851246188161895,111.59316767036216 39.494237039936706,111.51909250358585 39.07772636739537,111.37094214098761 38.720717219403014,111.29686694545671 38.423209596192464,111.22279174032155 37.768692824523896,111.07464130123844 37.41168367629871,111.07464130123844 36.87616995442659,110.92649082373828 36.99517300375737,110.77834030787926 36.99517300375737,110.70426503574708 36.99517300375737,110.70426503574708 36.81666842964478,110.48203916125931 36.935671478975564,110.03758715372533 36.87616995442659,109.1486821033177 36.935671478975564,108.85238011280308 36.81666842964478,108.6301535195089 36.57866233098321,107.88939758500783 35.86464403499849,107.00048919825349 35.6861394608859,106.63011029630434 35.507634887006134,106.33380700217094 35.448133361991495,106.11157943092985 35.09112421399914,105.7411999538308 34.6746135414578,105.44489619950764 34.258102868450806,105.29674426501151 33.960595245240256,105.22266828315333 33.6035860972479,105.14859229174908 33.30607847380452,104.92636426020181 33.068072374910116,104.77821219147881 32.59206017758697,104.7041361425654 31.997044930933043,104.55598401627503 31.342528159497306,104.18560353229987 31.342528159497306,103.66707045235671 31.342528159497306,103.44484184571775 31.402029684046283,103.14853690256132 31.461531209060922,102.92630809458205 31.402029684046283,102.70407920022262 31.283026634715497,102.33369751815917 30.92601748672314,102.25962115288712 30.569008338730782,102.11146839370485 30.09299614140764,102.03739199967822 29.73598699318245,101.96331559610553 29.43847936950624,101.8151627604966 28.90296564763412,101.59293343458558 28.724461073754355,101.5188569733291 28.069944302318618,101.29662753269076 27.772436678642407,101.29662753269076 27.534430580213666,101.29662753269076 26.998916858108714,101.14847452420508 26.52290466078557,101.00032147741877 26.463403136236593,101.00032147741877 26.463403136236593,100.92624493967742 26.463403136236593,100.85216839244822 26.403901611454785,100.25955566827906 26.344400086672977,99.81509572244249 26.28489856189117,99.51878890016815 26.463403136236593,98.92617479560431 26.463403136236593,98.40763695066562 26.641907710116357,98.11132939968957 26.58240618533455,98.03725248790579 26.463403136236593,97.8890986359329 26.344400086672977,97.81502169533633 26.22539703734219,97.66686778567964 25.749384839786217,97.5187138375477 25.570880265906453,97.44463684927905 24.79736044513993,97.00017471751198 24.321348247816786,96.77794352226192 23.785834525711834,96.40755800507031" stroke="red" stroke-linecap="round" stroke-linejoin="round" stroke-width="0.5"><title>2020-10-15 2.7km</title></polyline><polyline fill="none" points="140.37435321789235,93.52869554975769 138.00835561496206,101.61012504785322 139.4643541397527,104.1025059572421 153.17500691511668,104.48013849946437 152.99300709948875,107.27461171895266 149.71701041888446,110.97537998174084 147.89701226283796,115.7334761210368 147.95767886796966,120.26496018702164 151.05167573294602,126.98659674613737 158.4530015673954,132.12217700236943 158.8776678040158,142.9218527477933 177.7449820211623,147.0 179.86831320333295,145.33853604074102 181.99164438527077,139.5988968803431 180.47497925534844,131.74456234631361 163.54899640451185,130.234101278882 163.54899640451185,120.71810665843077 160.69766595982946,115.80900114390533 159.90900009241886,111.42853366653435 157.118336253101,110.37117452156963 156.39033699058928,106.67040242702933 152.38634104747325,104.1025059572421 151.11234233807772,101.23249064810807 138.9183546928689,100.32616709178546 140.49568642815575,93.0" stroke="red" stroke-linecap="round" stroke-linejoin="round" stroke-width="0.5"><title>2020-10-03 2.6km</title></polyline><polyline fill="none" points="20.401762070832774,153.52795718231937 20.098852674709633,155.11182585934876 19.735361399129033,156.69569023157237 19.55361576168798,157.44990984798642 18.947796969208866,159.10918956814567 18.705469452310354,160.01424924231833 18.039068781072274,161.59810028987704 19.49303388246335,164.08700038137613 21.91630905144848,164.01157932257047 22.703873481368646,164.08700038137613 24.339584220433608,164.08700038137613 25.127148650586605,164.16242143028649 26.520531872287393,164.16242143028649 27.24751442298293,164.01157932257047 28.64089764538221,164.01157932257047 29.30729831662029,164.08700038137613 29.913117109099403,164.16242143028649 31.972901002736762,164.31326349894516 33.184538587229326,164.46410552831367 33.00279294955544,167.2546760327532 30.821845297235996,169.36645023466554 30.09486274700612,170.34691422706237 29.73137147142552,170.95027586392825 29.610207712976262,171.3273765699705 29.489043954294175,171.77989709476242 29.186134558403865,172.53409718867624 29.064970799954608,172.98661677667405 27.913915094686672,175.70172692497727 27.792751336237416,177.58721264108317 27.792751336237416,178.5676628028159 27.9744969739113,180.22688239539275 28.156242611585185,180.90565268538194 28.459152007708326,182.2631908938056 28.701479524374008,182.86654019344132 29.30729831662029,184.60116595058935 29.73137147142552,185.2799311458366 31.06417281436734,186.9391316283145 32.69988355366513,188.22123785642907 33.72977550048381,188.8245809880318 34.33559429249726,189.12625231960556 34.941413084510714,189.42792349494994 36.213632548227906,190.18210075004026 38.45516207953915,192.06753961823415 38.39458020078018,193.4250518262852 38.333998321322724,195.08422912005335 38.39458020078018,195.9138159955619 38.273416441865265,198.25173629139317 38.21283456287347,199.08131865801988 38.15225268364884,200.5142308738432 38.21283456287347,201.2683937830734 38.333998321322724,201.57005867332919 38.45516207953915,201.72089105995838 38.636907717445865,201.94713956688065 38.69748959667049,202.2488041058532 38.87923523434438,202.85213271551766 39.363890268141404,203.15379678620957 39.666799664264545,203.2292127793189 40.27261845674366,203.4554607004975 40.51494597340934,203.4554607004975 40.696691610850394,203.60629259928828 40.93901912798174,203.68170853407355 41.24192852410488,203.68170853407355 41.84774731635116,203.832540374191 42.09007483324967,203.7571244589053 42.45356610859744,203.7571244589053 42.81705738394521,203.832540374191 43.24113053851761,203.9079562795814 43.54403993487358,203.9079562795814 44.21044060611166,203.98337217513472 44.57393188145943,203.98337217513472 44.81625939835794,203.98337217513472 45.119168794713914,203.98337217513472 45.422078190604225,203.98337217513472 45.724987586727366,203.98337217513472 46.8760432919953,204.13420393725391 47.36069832602516,204.3604515073821 47.90593523881398,204.4358673443203 49.78397349501029,204.96377793094143 50.0868828909006,205.03919369005598 50.69270168291405,205.19002517894842 51.23793859616853,205.34085662884172 51.78317550919019,205.5671037302236 52.26783054298721,205.79335074394476 53.237140610814095,206.17042890476296 53.842959402827546,206.32126010087086 54.44877819507383,206.472091257805 55.47867014212534,206.84916897979565 56.50856208871119,207.0 57.72019967320375,206.92458449478727 59.23474665381946,206.0950132921571 59.5376560499426,205.71793508238625 59.84056544606574,205.2654409086099 60.44638423854485,204.2096198037034 60.74929363443516,203.60629259928828 61.17336678924039,202.39963631681167 61.4156943061389,201.87172340753023 61.77918558125384,200.66506353381556 61.8397674607113,200.21256543701747 61.960931218927726,199.53381763317157 61.9003493397031,198.4025695368182 61.71860370202921,198.17631965392502 61.59743994381279,197.7992363208905 61.53685806435533,197.4975694786408 61.355112426914275,197.1959024804528 61.294530547456816,196.8942353259772 61.294530547456816,196.66798485745676 61.23394866823219,196.36631742987083 61.17336678924039,196.14006675651763 61.17336678924039,195.61214817734435 61.23394866823219,195.31048020307207 61.23394866823219,195.00881207268685 61.355112426914275,194.7071437863051 61.4156943061389,194.5563095844118 61.355112426914275,194.33005820860853 61.294530547456816,194.02838957041968 61.4156943061389,193.57588632096304 61.355112426914275,192.9725481082569 60.87045739311725,192.14295704616234 60.44638423854485,191.6904523325502 59.90114732529037,191.53961735003395 59.65881980815902,191.46419984393287 59.35591041226871,191.46419984393287 58.568345982348546,191.53961735003395 58.02310906932689,191.53961735003395 57.78078155266121,191.46419984393287 57.5384540357627,191.46419984393287 56.7508896056097,191.38878232834395 56.44798020948656,191.38878232834395 56.02390705491416,191.46419984393287 55.296924504451454,191.46419984393287 54.69110571197234,191.31336480297614 54.44877819507383,191.23794726765482 54.08528691995889,191.31336480297614 53.72179564461112,191.31336480297614 52.570739939110354,191.23794726765482 51.78317550919019,191.23794726765482 50.4503741664812,191.16252972278744 49.78397349501029,191.23794726765482 49.117572823306546,191.23794726765482 46.63371577509679,190.93627702922095 45.66440570773557,190.78544185165083 44.5133500022348,190.6346066345577 44.1498587266542,190.55918901163386 43.84694933076389,190.55918901163386 43.54403993487358,190.18210075004026 43.54403993487358,189.95584767585387 43.54403993487358,189.65417677391088 43.48345805541612,189.2770879267482 43.422876176191494,188.89999883563723 43.362294296734035,187.99498402123572 43.30171241774224,187.61789410049096 43.30171241774224,187.24080393579789 43.362294296734035,186.41120471450267 43.48345805541612,186.03411376883741 43.54403993487358,185.2799311458366 43.66520369309001,184.1486553812283 43.725785572547466,183.7715629718732 43.78636745153926,183.46988886839245 43.78636745153926,182.9419588118908 43.725785572547466,181.96151600952726 43.66520369309001,181.50900339044165 43.54403993487358,180.9810715575586 43.54403993487358,180.67939600994578 43.30171241774224,180.22688239539275 42.998803021619096,179.69894940115046 42.756475504720584,179.39727318962105 42.5747298670467,179.1710159285576 42.45356610859744,178.9447585794842 42.21123859169893,178.71850114298286 42.029492954257876,178.4922436181805 41.72658355766907,178.11514754849486 41.60541979945265,177.96430905227317 41.48425604123622,177.73805123509374 41.12076476565562,176.90843848627992 40.93901912798174,176.38050248555373 40.75727349030785,176.00340504955966 40.696691610850394,175.7771464708494 40.57552785263397,175.40004864445655 40.45436409441754,175.098370207299 40.39378221496008,174.57043256709585 40.45436409441754,173.66539549967274 40.45436409441754,173.28829630679684 40.45436409441754,172.98661677667405 40.39378221496008,172.68493709061295 40.333200335502625,172.08157724956982 40.09087281883694,171.77989709476242 39.90912718116306,171.40279668179573 39.24272650992498,170.724015323387 38.87923523434438,170.64859512349358 38.57632583822124,170.724015323387 38.273416441865265,170.64859512349358 38.031088925432414,170.5731749140541 37.78876140830107,170.5731749140541 37.48585201217793,170.5731749140541 37.12236073683016,170.34691422706237 37.12236073683016,170.19607372017344 37.001196978613734,169.59271130233537 36.940615099156275,169.14018907916034 37.001196978613734,168.61224604095332 36.75886946148239,167.40551730094012 36.39537818613462,166.6513105695485 35.0625768431928,165.0674732562038 34.45675805094652,164.76578947051894 33.48744798335247,164.38868451863527 33.00279294955544,164.23784246935975 32.39697415730916,164.08700038137613 31.306500331498682,162.20147098507732 31.245918452041224,161.67352166085038 31.124754693359137,161.22099328809418 30.518935901112854,161.07015041908016 30.09486274700612,160.9947289697011 29.00438892072998,161.07015041908016 28.701479524374008,160.9947289697011 28.398570128483698,160.9193075109506 27.853333215462044,161.07015041908016 27.61100569856353,161.1455718583893 27.00518690631725,161.1455718583893 26.64169563073665,161.1455718583893 26.33878623484634,161.1455718583893 25.30889428802766,160.9193075109506 24.703075495781377,160.9193075109506 24.400166099425405,160.8438860423048 24.157838582759723,160.7684645638219 23.491437911288813,160.61762157757767 22.88561911904253,160.6930430754437 22.643291602144018,160.6930430754437 22.461545964237303,160.61762157757767 22.098054689122364,160.54220006999094 21.85572717199102,160.4667785523925 21.673981534549966,160.4667785523925 21.068162742303684,160.54220006999094 20.462343950057402,160.54220006999094 19.91710703726858,160.54220006999094 19.311288244556636,160.54220006999094 18.947796969208866,160.3159354882082 18.8872150904499,160.16509238473373 18.705469452310354,159.86340606107842 18.705469452310354,159.41087628243258 18.705469452310354,159.03376786533045 18.705469452310354,158.73208095581504 18.82663321099244,158.12870666815434 19.068960728123784,157.67617554269964 19.12954260688275,157.29906600294635 19.250706365564838,156.39400211157044 19.371870124014094,156.16773591918172 19.432452003471553,155.79062540322775 19.55361576168798,155.33809246192686 19.735361399129033,155.03640363906743 19.977688916260377,154.206758571323 20.341180191375315,153.52795718231937 20.58350770850666,153.0754224838456 20.52292582928203,153.0" stroke="red" stroke-linecap="round" stroke-linejoin="round" stroke-width="0.5"><title>2020-10-03 2.8km</title></polyline><polyline fill="none" points="139.47739171842113,163.23517439729767 153.89536764123477,164.83917817665497 148.74170816224068,171.40791007544613 147.4532932927832,181.41362863057293 149.72335758712143,185.9963438497507 153.46589601808228,189.3569790624315 159.35579256527126,191.8010653796955 164.93892366741784,192.48846283293096 164.5094520440325,203.71584124531364 177.5776600081008,207.0 179.72501812432893,205.39611079817405 181.5042577064596,201.95919068931835 181.38155152834952,193.40499152534176 180.58396137086675,192.87034996115835 170.95152639248408,191.26642236253247 162.7915655511897,191.11366712593008 162.91427172906697,181.41362863057293 160.09202963393182,176.44898032117635 159.4171456543263,171.48429024900543 156.71760973683558,170.33858660893748 156.10407884651795,166.51955841237213 151.31853790208697,163.61708045459818 150.33688847720623,161.2492589164758 139.23197936243378,160.5618250776315 138.49574229377322,159.49248195899418 139.9682164308615,153.0" stroke="red" stroke-linecap="round" stroke-linejoin="round" stroke-width="0.5"><title>2020-09-28 2.5km</title></polyline><polyline fill="none" points="19.535280771553516,223.20630357589107 20.02472099242732,223.20630357589107 20.942421406507492,223.3586351244594 24.00142278568819,223.43480088398792 24.8579431718681,223.51096663367935 26.938064109766856,223.66329810320167 29.87470543384552,224.04412660503294 32.07718642731197,224.27262358763255 33.912587254773825,224.80578286887612 33.42314703413285,226.25292705453467 30.670045792590827,228.6140494022402 30.180605572182685,229.22336976061342 29.262905158335343,230.59433826064924 28.77346493722871,231.3559860471869 27.611044413177297,235.08804595307447 27.733404468512163,236.07818032306386 27.42750433064066,238.51542706019245 27.305144275305793,240.41951905033784 27.48868435807526,241.33348101738375 28.1004846340511,242.70442130719312 28.34520474425517,243.00907427095808 28.58992485469207,243.46605342137627 28.95700502023101,244.45617369643878 29.140545103000477,244.8369887432782 29.752345378743485,245.90326956356876 30.792405847925693,246.9695484522381 31.4042061236687,247.5026871720329 33.484327061567456,249.25442527979612 35.013827751390636,250.24453581683338 35.74798808270134,250.4730226272368 37.216308744391426,251.0061581734917 39.357609710190445,251.6916174517828 40.9482904272154,251.76777954463614 41.560090703191236,251.76777954463614 41.92717086873017,251.76777954463614 42.661331199808046,251.6916174517828 43.089591393014416,251.6916174517828 43.517851585987955,251.6154553492088 44.43555200006813,251.76777954463614 44.9249922207091,252.37707593181403 44.9249922207091,252.8340478083701 44.86381219304167,253.29101933009224 44.86381219304167,253.67182866041549 44.74145213793963,255.11890186864184 44.74145213793963,256.10900254017906 44.68027211003937,258.08919888641685 44.49673202750273,260.9071591233951 44.49673202750273,261.74492848390946 44.49673202750273,263.5727847678354 45.59797252411954,264.18206893419847 45.96505268965848,264.2582294107415 46.39331288263202,264.3343898775056 46.82157307583839,264.3343898775056 47.678093462018296,264.6390316452016 48.106353655224666,264.6390316452016 48.534613848431036,264.79135247005615 49.14641412417404,264.9436732555041 50.73709484166466,265.47679569380125 51.5324351999443,265.7052765910048 52.694855724228546,266.23839833959937 53.91845627618022,266.46687894128263 55.63149704854004,266.9238398784073 56.24329732428305,267.0 57.52807790366933,266.8476797467447 58.69049842795357,266.39071875059744 59.669378869235516,265.24831470800564 60.21999911754392,264.105908447993 60.34235917287879,263.8012664040434 60.770619365852326,263.2681424479815 60.89297942118719,263.03966060472885 61.01533947628923,262.8111786728259 61.13769953139126,262.50653595861513 61.32123961416073,262.2780538199004 61.4435996694956,261.8210892758798 61.26005958672613,261.2879635261488 61.07651950372383,260.9833200236899 60.954159448621795,259.76474443729967 60.954159448621795,258.546166327782 61.01533947628923,257.8607150327298 60.954159448621795,257.47990841255523 61.01533947628923,256.8706173080718 61.07651950372383,256.56597151915776 61.13769953139126,256.18516406137496 61.26005958672613,255.88051791774342 61.26005958672613,255.6520332065411 61.26005958672613,255.42354840651387 61.198879559058696,254.96657854056684 61.198879559058696,254.58577004796825 61.13769953139126,254.35728483408457 61.13769953139126,253.82415232353378 61.32123961416073,253.29101933009224 60.525899255415425,252.75788585364353 58.751678455621004,251.99626576370792 57.52807790366933,251.84394162741955 56.85509760025889,251.84394162741955 54.95851674536243,251.6916174517828 54.10199635871686,251.6916174517828 53.85727624851279,251.53929323662305 53.61255613807589,251.46313111443305 53.42901605530642,251.46313111443305 53.24547597253695,251.38696898211492 52.93957583466545,251.38696898211492 52.63367569656111,251.31080684019253 51.89951536571607,251.31080684019253 51.593615227844566,251.23464468837483 50.920634924201295,251.1584825264872 50.61473478632979,251.1584825264872 50.30883464822546,251.08232035499532 49.88057445525192,251.1584825264872 49.51349428994581,251.1584825264872 49.26877417927608,251.1584825264872 49.02405406907201,251.08232035499532 48.41225379309617,251.08232035499532 48.106353655224666,251.1584825264872 47.06629318627529,251.0061581734917 46.69921302050352,251.08232035499532 46.27095282752998,251.1584825264872 45.903872661991045,251.23464468837483 45.59797252411954,251.38696898211492 44.86381219304167,251.53929323662305 44.619092082604766,251.46313111443305 44.31319194473326,251.46313111443305 44.00729180662893,251.38696898211492 43.701391668757424,251.46313111443305 43.45667155855335,251.46313111443305 42.78369125514291,251.0061581734917 42.844871282577515,250.62534711841727 42.78369125514291,250.01604891748866 42.844871282577515,249.40675008611288 42.90605131024495,248.87361309112748 42.90605131024495,248.18815053073922 42.96723133767955,247.88350024761166 42.96723133767955,247.57884980679955 42.96723133767955,247.2741992084775 42.90605131024495,247.04571115598083 42.90605131024495,246.6648975382559 42.78369125514291,245.90326956356876 42.72251122747548,245.67478097917046 42.78369125514291,245.2939664743608 42.78369125514291,244.76082575361943 42.90605131024495,244.45617369643878 42.844871282577515,244.15152148151537 42.90605131024495,243.92303221684415 42.90605131024495,243.61837972613284 42.78369125514291,243.00907427095808 42.72251122747548,242.55209476599703 42.90605131024495,241.9427882071468 42.90605131024495,241.33348101738375 42.72251122747548,241.10499065899057 42.600151172373444,240.7241731971153 42.23307100683451,240.26719191775192 42.11071095149964,239.88637391396333 41.80481081362814,239.65788299351698 41.68245075875893,239.50555566389812 41.49891067575663,239.27706459525507 41.25419056531973,239.04857343819458 40.887110399780795,238.2869356072042 40.09177004126832,236.3828367170645 39.96940998570062,235.6211954363389 40.030590013600886,235.24037442612462 40.09177004126832,234.402567336394 39.96940998570062,234.02174553787336 39.90822995849885,233.64092349272687 39.90822995849885,233.26010120112915 39.785869903163984,232.95544319064356 39.66350984806195,232.11763284809422 39.41878973762505,231.432150771725 39.17406962742098,231.12749181478284 38.1951891859062,230.51817342767026 37.88928904780187,230.59433826064924 37.58338890993036,230.51817342767026 37.09394868952222,230.6705030835583 36.726868523750454,230.2896788699436 36.66568849608302,229.75652455666568 36.60450846888125,229.37569975177757 36.543328440980986,229.1472047503339 36.48214841354638,228.8425446107285 36.48214841354638,228.46171921427594 36.42096838611178,228.23322385788197 36.48214841354638,227.54773725697305 36.35978835821152,226.86224985762965 36.11506824800745,226.48142317967722 35.870348137570545,226.10059625515714 35.74798808270134,225.94826541648945 35.3809079171624,225.41510717011988 35.013827751390636,225.2627761538606 34.585567558184266,224.95811400335515 34.27966742031276,224.72961728670634 33.484327061567456,224.5011204816983 32.383086565183476,224.04412660503294 31.893646344309673,223.81562953349203 31.343026096234098,223.58713237335905 30.97594593069516,223.13013778690947 30.97594593069516,222.977806179435 30.914765903027728,222.7493086939212 30.853585875593126,222.44464524212526 30.853585875593126,222.29231345682638 30.73122582025826,221.9876497684745 30.670045792590827,221.68298592203064 30.364145654486492,221.22598985704826 29.69116535107605,220.99749169149436 29.385265213204548,220.92132561671315 28.712284909794107,220.92132561671315 28.34520474425517,220.8451595317456 28.039304606383666,220.8451595317456 27.67222444084473,220.76899343705736 27.305144275305793,220.69282733264845 26.99924413743429,220.76899343705736 26.693343999795616,220.69282733264845 26.38744386145845,220.6166612181114 26.020363695686683,220.6166612181114 25.347383392741904,220.6166612181114 25.102663282305002,220.6166612181114 24.8579431718681,220.6166612181114 24.490863006329164,220.69282733264845 24.123782840557396,220.69282733264845 23.817882702918723,220.76899343705736 23.57316259248182,220.76899343705736 23.022542344406247,220.8451595317456 22.65546217886731,220.76899343705736 22.410742068197578,220.8451595317456 22.04366190265864,220.76899343705736 21.737761764787138,220.76899343705736 21.493041654583067,220.76899343705736 20.69770129583776,220.6166612181114 20.26944110263139,220.5404950940283 19.84118090965785,220.5404950940283 19.290560661349446,220.5404950940283 18.556400330271572,219.47416832012823 18.678760385373607,218.78867151628947 18.801120440708473,218.10317391424906 19.16820060601458,217.03684272390092 19.474100744118914,216.42750974773662 19.59646079922095,215.89434287598124 19.657640826888382,215.36117552104406 19.35174068901688,214.98034140025266 19.41292071668431,214.67567392630735 19.657640826888382,213.91400455136318 19.780000881990418,213.53316949424334 19.902360937325284,213.3046683416469 20.02472099242732,213.0" stroke="red" stroke-linecap="round" stroke-linejoin="round" stroke-width="0.5"><title>2020-09-28 2.5km</title></polyline></svg>